<svg version="1.1" id="Layer_1" xmlns="http://www.w3.org/2000/svg" xmlns:xlink="http://www.w3.org/1999/xlink" x="0px" y="0px"
	 width="100%" viewBox="0 0 496 496" enable-background="new 0 0 496 496" xml:space="preserve">
<path fill="#000000" opacity="1.000000" stroke="none" 
	d="
M212.724426,261.281616 
	C203.576904,263.252533 196.458771,260.533661 194.027328,254.356888 
	C190.996124,246.656433 193.805145,237.008148 200.825577,232.814850 
	C206.273636,229.560715 209.687592,223.188934 216.811890,222.469070 
	C217.492203,222.400314 218.169937,221.081116 218.627487,220.224197 
	C222.628876,212.730011 229.149185,210.579575 237.093307,211.467697 
	C239.845047,211.775330 242.097672,211.773407 243.913712,208.862106 
	C250.022385,199.069183 263.050720,196.035141 272.657562,202.167999 
	C275.670349,204.091293 278.734253,205.283875 282.160065,206.203064 
	C288.567932,207.922409 294.301758,210.920761 297.083649,217.572876 
	C297.561493,218.715485 298.356995,219.502350 299.477936,219.982086 
	C306.598999,223.029694 308.637970,229.198257 307.896729,235.961716 
	C307.086578,243.354263 303.985596,249.578766 295.573730,251.674576 
	C290.445099,252.952347 287.350494,260.936554 288.647095,267.784424 
	C289.991699,274.885895 289.947601,275.366699 283.223602,278.418182 
	C269.708954,284.551392 255.357590,285.727692 240.766479,284.767609 
	C236.478653,284.485443 232.174667,283.946625 228.018723,282.630646 
	C220.964523,280.397003 218.928360,277.690247 218.662979,270.363007 
	C218.544327,267.086945 219.286148,263.723541 218.008392,260.601868 
	C216.107376,259.577057 214.691986,260.980255 212.724426,261.281616 
M285.487640,211.010193 
	C283.770264,210.475586 281.706360,208.755707 280.361542,209.819077 
	C277.259430,212.271988 276.106445,210.073242 274.384949,208.240997 
	C267.213135,200.607590 258.265503,200.072449 249.723663,206.824524 
	C253.627975,209.057251 249.379059,211.321304 249.769226,213.784668 
	C250.434860,213.565002 251.025024,213.370255 251.615173,213.175476 
	C251.878845,216.644272 255.796371,217.550385 256.755066,220.700226 
	C257.844910,224.280975 260.324829,225.350723 264.156158,224.018555 
	C266.240875,223.293732 268.920959,221.425674 271.886658,224.864594 
	C264.624786,226.028152 258.248596,227.876007 251.962753,230.307571 
	C251.261871,227.188339 254.483414,227.664139 254.809525,225.612717 
	C249.540894,227.578369 244.618958,229.414673 239.697021,231.250961 
	C242.480927,226.041992 248.226791,226.421494 252.023804,223.367218 
	C245.401337,214.014725 233.552048,211.685532 225.193130,218.010300 
	C228.009979,219.710709 225.719833,222.583252 226.912979,224.974060 
	C228.505325,228.164719 226.522324,229.425980 223.146042,228.946335 
	C214.258606,227.683762 212.243073,228.594513 207.924530,236.555115 
	C206.130463,239.862259 203.785690,241.723236 200.195969,242.232697 
	C199.239990,239.677063 201.730530,238.384827 201.961624,236.005539 
	C196.136276,242.495895 195.035172,250.023483 198.934525,254.857590 
	C201.486694,258.021576 206.283829,258.965118 209.796570,257.003540 
	C209.771240,254.931717 206.575943,256.182037 206.593140,253.641571 
	C212.230545,254.672760 210.615570,248.769424 213.410919,246.348953 
	C216.233002,249.077194 219.424286,249.958969 222.703110,247.932343 
	C223.813095,249.334061 222.031342,250.145538 222.855942,251.800400 
	C225.358749,247.781631 229.710449,246.894577 232.396454,243.832993 
	C242.599289,252.613174 247.437881,252.051407 260.556244,240.518997 
	C260.675262,243.756577 262.517212,246.389130 265.240448,245.074234 
	C271.162720,242.214676 276.135284,245.495514 281.558807,246.137604 
	C285.504913,246.604797 289.454254,248.067780 293.384552,247.553848 
	C299.230652,246.789413 304.237152,239.222412 303.654633,232.870575 
	C303.092163,226.738068 299.100555,223.581604 291.825867,223.306976 
	C289.850128,223.232376 287.408569,224.262115 286.106812,221.631714 
	C286.894226,218.284103 290.920166,219.834381 292.356232,217.458115 
	C291.399597,214.232788 288.818054,212.731644 285.487640,211.010193 
M281.752228,250.536652 
	C281.531921,250.295532 281.311615,250.054428 281.091309,249.813324 
	C279.165344,255.063614 275.702515,252.227386 272.781433,251.260834 
	C265.350433,248.801956 258.065094,247.399185 250.637955,251.472824 
	C246.760193,253.599716 242.345917,252.978485 238.473053,251.617462 
	C234.878281,250.354156 232.178589,250.590805 229.332397,253.364288 
	C230.960342,253.959229 232.847366,251.864899 233.956467,254.199600 
	C232.708603,257.105072 228.953384,256.619446 227.139618,259.331543 
	C231.274414,261.038086 228.284958,263.286011 226.832199,266.045563 
	C246.422852,261.214081 265.065826,260.632446 283.331177,268.621124 
	C283.309082,266.865753 280.946442,267.013397 281.233856,265.517792 
	C282.155121,264.228729 282.985870,263.066315 283.738007,262.013855 
	C283.193909,260.726013 281.523895,260.760376 281.441132,259.851379 
	C284.445862,256.819641 282.600006,253.917160 281.752228,250.536652 
z"/>
<path fill="#000000" opacity="1.000000" stroke="none" 
	d="
M323.987061,322.094238 
	C327.626190,329.114471 328.467804,337.182404 335.070709,342.805756 
	C330.960999,343.892242 327.122070,343.294617 322.761444,343.107880 
	C325.596893,339.139282 324.053925,335.294434 321.352570,333.348785 
	C317.969360,330.912018 312.889923,331.315552 309.405334,333.024445 
	C306.056702,334.666687 305.153595,338.954010 306.976562,343.292358 
	C301.988007,343.292358 297.344604,343.399261 292.708984,343.255157 
	C289.563995,343.157410 287.663361,340.886200 285.978546,338.573914 
	C283.428558,335.074219 281.017639,331.473541 278.496918,327.952057 
	C277.809021,326.991028 276.892670,326.101929 275.561310,326.541199 
	C274.183563,326.995819 274.121460,328.307739 274.191498,329.460297 
	C274.458038,333.847961 272.962311,338.440369 275.878662,342.808044 
	C272.347931,343.930145 268.966431,343.136597 265.414795,343.286774 
	C268.840668,336.249817 268.503387,312.601776 264.869324,307.822449 
	C272.450958,306.587921 279.834625,306.752533 287.107483,308.275269 
	C291.025452,309.095581 293.330688,311.799408 293.356628,316.184540 
	C293.381500,320.379364 291.680969,323.218140 287.714691,324.609009 
	C286.168488,325.151276 284.575073,325.558838 281.907776,326.354523 
	C287.132965,326.874878 288.127075,330.719543 290.328003,333.347626 
	C293.001038,336.539459 294.231903,342.094086 299.496063,341.445343 
	C304.683563,340.806091 304.783813,335.168976 306.582001,331.426880 
	C308.598633,327.230255 310.020233,322.744751 312.083008,318.574036 
	C314.191406,314.311096 314.219086,310.893250 309.153717,308.684906 
	C314.609955,305.758789 317.382965,306.626404 319.549225,311.622894 
	C321.006287,314.983582 322.407135,318.368591 323.987061,322.094238 
M279.280090,323.676239 
	C279.776154,323.657623 280.286072,323.707214 280.766174,323.609833 
	C285.516998,322.646301 287.443115,319.859863 286.719635,315.038422 
	C286.124939,311.075134 283.225037,309.319855 278.271179,309.308167 
	C272.520905,309.294617 274.553436,313.496368 274.154022,316.389099 
	C274.019501,317.363373 274.193054,318.376160 274.122070,319.363922 
	C273.896942,322.496582 275.167023,324.086914 279.280090,323.676239 
M311.567688,324.968719 
	C311.238129,326.351807 310.080048,327.619507 311.093048,329.393646 
	C313.791626,330.264496 316.566193,330.553711 319.762878,328.827850 
	C318.542419,325.014587 317.282623,321.439697 315.234680,317.879669 
	C313.289917,319.947754 312.872986,322.267303 311.567688,324.968719 
z"/>
<path fill="#000000" opacity="1.000000" stroke="none" 
	d="
M384.922607,324.442993 
	C385.043640,325.189117 385.226074,325.989136 385.465210,326.006439 
	C392.831207,326.540100 394.915436,332.911896 398.389862,337.695648 
	C399.736847,339.550232 401.458557,340.999329 403.928253,342.711639 
	C390.322296,346.009857 389.718506,332.314575 381.848328,327.438904 
	C381.206482,332.967316 380.257141,337.863983 383.109314,342.860443 
	C379.803436,343.829376 376.579681,343.308044 373.754608,343.181519 
	C375.256042,331.301300 374.967163,319.726135 374.059418,307.306580 
	C376.110046,306.467743 379.600159,307.199188 383.886475,307.430420 
	C379.740082,312.484375 381.863586,317.623169 381.254517,322.767700 
	C387.299652,319.729340 393.308746,311.685120 392.491119,307.828247 
	C395.325958,306.644073 398.092346,306.760651 401.512573,308.060516 
	C394.064880,312.006287 389.960266,318.488190 384.922607,324.442993 
z"/>
<path fill="#000000" opacity="1.000000" stroke="none" 
	d="
M143.479553,318.552917 
	C146.320679,322.460022 148.954834,326.073883 151.588989,329.687744 
	C152.201920,322.312286 154.099014,315.077179 151.065735,307.722168 
	C152.806320,306.567169 154.801849,307.149689 156.497192,307.498932 
	C153.361481,319.247284 156.645737,331.100128 154.139175,343.861084 
	C145.915237,334.454376 140.193085,324.452240 132.147598,314.426270 
	C132.336472,324.731537 131.497009,333.685699 133.079941,343.227692 
	C132.118912,343.930328 130.233276,343.400909 129.085861,343.154602 
	C129.355774,331.321075 131.776337,319.671265 127.834305,307.926208 
	C132.539993,306.104645 134.806442,306.673706 138.280289,311.388336 
	C139.959656,313.667511 141.609421,315.968506 143.479553,318.552917 
z"/>
<path fill="#000000" opacity="1.000000" stroke="none" 
	d="
M104.131775,323.804291 
	C99.405052,318.885315 98.449448,314.991791 100.819740,311.173859 
	C103.195839,307.346558 108.957458,305.745850 114.226173,307.489868 
	C116.273079,308.167419 118.235558,309.251587 120.399796,308.159119 
	C121.546432,312.401917 121.589676,314.202820 120.734192,318.725433 
	C119.014954,318.051147 119.173828,316.331360 118.684967,315.049896 
	C117.872597,312.920380 116.562134,311.262665 114.539627,310.265350 
	C112.004150,309.015137 109.226929,308.479095 107.221130,310.876892 
	C105.189796,313.305267 106.162865,315.950043 108.074738,318.105103 
	C109.166260,319.335419 110.527092,320.346191 111.847214,321.349884 
	C113.833977,322.860413 115.952293,324.201141 117.906769,325.750244 
	C122.945107,329.743500 124.406860,334.187012 122.299904,338.753540 
	C120.348549,342.982819 114.706390,345.152374 108.927818,343.935242 
	C106.054939,343.330139 103.409790,341.325256 100.341805,342.953552 
	C99.359543,338.434784 99.374084,333.745575 100.292679,329.370880 
	C101.959373,330.113281 101.111664,331.677094 101.441528,332.830536 
	C102.649948,337.055969 104.671722,340.589294 109.384666,341.513397 
	C112.165848,342.058685 114.844948,341.595642 116.266182,338.776611 
	C117.569405,336.191681 116.697723,333.821869 114.592186,332.069122 
	C111.271751,329.305054 107.807434,326.713806 104.131775,323.804291 
z"/>
<path fill="#000000" opacity="1.000000" stroke="none" 
	d="
M199.676025,314.467163 
	C199.784378,311.826172 199.546127,309.751068 196.389114,308.141663 
	C204.878128,306.509064 212.222702,306.776245 219.475571,308.354065 
	C223.767151,309.287659 225.820694,312.532959 225.707016,316.853760 
	C225.597794,321.004150 223.222412,323.678375 219.308075,324.814545 
	C217.412048,325.364899 215.386078,325.468658 213.418274,325.770294 
	C206.269577,326.866089 206.245117,326.865509 206.284042,334.170685 
	C206.299713,337.108276 205.702499,340.181030 208.379440,342.819611 
	C204.598389,343.717957 201.350677,343.474701 198.436050,343.103180 
	C200.944290,333.657959 199.124420,324.214386 199.676025,314.467163 
M217.863510,321.469238 
	C220.061234,318.363708 219.813370,315.209351 217.769409,312.219330 
	C215.707489,309.202972 212.513107,309.162048 209.275299,309.414185 
	C207.510513,309.551636 206.458817,310.438599 206.406219,312.194855 
	C206.317032,315.172638 206.329391,318.154816 206.362640,321.134399 
	C206.380203,322.707733 207.277679,323.653046 208.843231,323.631409 
	C211.760056,323.591034 214.869339,324.424133 217.863510,321.469238 
z"/>
<path fill="#000000" opacity="1.000000" stroke="none" 
	d="
M342.847687,339.146179 
	C336.924713,331.936554 336.457184,324.320557 340.054993,316.423157 
	C342.953430,310.060913 348.315277,307.157227 355.173279,306.656738 
	C358.917847,306.383453 362.067566,309.088562 365.913361,308.324768 
	C366.558441,312.012115 366.600769,315.426453 365.945709,319.032440 
	C364.067169,318.189362 364.288025,316.455719 363.788208,315.194336 
	C361.421143,309.220367 355.717438,307.345123 350.467468,310.919250 
	C342.167755,316.569672 343.335999,334.569794 352.297882,339.122528 
	C358.504639,342.275635 364.388611,339.799866 366.556305,333.127991 
	C366.841705,332.249542 366.438934,331.078552 367.622009,330.561584 
	C369.615906,337.393524 364.047485,343.962677 355.854431,344.179413 
	C351.045959,344.306671 346.667511,342.839325 342.847687,339.146179 
z"/>
<path fill="#000000" opacity="1.000000" stroke="none" 
	d="
M167.564590,334.325928 
	C166.287079,337.302521 163.995178,339.851562 167.274963,342.757416 
	C164.521484,343.900177 162.340149,343.248444 159.833771,343.159515 
	C166.616043,334.423096 169.187683,324.341400 173.065445,314.902649 
	C174.354294,311.765564 171.407867,309.940613 168.682800,308.512848 
	C174.842056,305.908203 177.401840,306.870270 179.726669,312.418091 
	C182.941971,320.090881 186.121490,327.778687 189.340225,335.450043 
	C190.443359,338.079224 191.669556,340.641418 194.949387,342.345612 
	C190.565872,344.281067 186.668579,342.879059 182.091049,343.505005 
	C185.021652,339.156830 183.912018,334.708679 180.852859,333.245972 
	C177.004349,331.405823 171.941223,330.822296 167.564590,334.325928 
M170.914993,329.734680 
	C173.791458,330.026611 176.736801,330.841339 179.532654,328.754059 
	C178.347855,324.918793 177.144989,321.328827 174.573532,317.664673 
	C173.087631,321.989532 170.242920,325.076233 170.914993,329.734680 
z"/>
<path fill="#000000" opacity="1.000000" stroke="none" 
	d="
M241.844696,313.433014 
	C241.779907,311.232452 241.548187,309.614227 239.290161,309.412018 
	C236.495285,309.161804 233.921783,309.681885 232.109909,311.977692 
	C231.030777,313.345062 230.257339,314.953644 229.178528,316.730347 
	C227.491608,309.523041 229.139832,307.180695 235.762650,307.084656 
	C242.407013,306.988342 249.055862,306.966522 255.699066,307.097626 
	C261.498627,307.212128 263.009491,309.595337 261.385651,316.339600 
	C259.132599,312.973572 257.375946,309.390289 252.842133,309.369019 
	C249.880020,309.355133 248.202133,310.109131 248.286392,313.580292 
	C248.471863,321.219849 248.460449,328.869873 248.277649,336.509552 
	C248.216721,339.056152 249.520950,340.792755 251.179214,342.821228 
	C247.275131,343.773132 243.883789,343.354187 240.728043,343.164703 
	C242.989731,333.271606 241.510361,323.530579 241.844696,313.433014 
z"/>
<path fill="#000000" opacity="1.000000" stroke="none" 
	d="
M308.169739,178.268372 
	C301.381042,180.059143 297.787750,177.038910 299.404846,171.415115 
	C300.863281,171.156815 301.450439,172.183975 301.986633,173.221649 
	C302.516541,174.247131 302.872559,175.423416 304.785522,175.382935 
	C304.346069,171.995438 298.352448,168.939880 303.522888,165.390442 
	C306.109528,163.614777 308.679138,165.267975 310.583984,167.267197 
	C312.098724,168.856979 313.205688,170.762939 310.886597,172.536682 
	C308.273895,172.432983 308.775085,168.902283 305.842682,168.970825 
	C306.354919,172.133072 311.197266,174.149490 308.169739,178.268372 
z"/>
<path fill="#000000" opacity="1.000000" stroke="none" 
	d="
M210.534027,168.696548 
	C211.458435,164.446335 215.606018,169.645996 216.908783,165.836411 
	C214.064148,164.525146 208.925415,167.090530 208.406830,161.659668 
	C208.141357,158.879578 210.323471,157.470306 212.687943,156.945679 
	C215.211838,156.385696 217.918900,156.166824 218.988007,159.351929 
	C217.344101,161.719894 214.858185,159.166412 213.345581,160.973312 
	C214.035629,162.412415 215.361557,161.826477 216.398270,161.897003 
	C218.686203,162.052628 220.842728,162.416656 221.184189,165.181320 
	C221.530167,167.982727 219.727142,169.404312 217.368942,170.260193 
	C214.909851,171.152679 212.507797,171.537445 210.534027,168.696548 
z"/>
<path fill="#000000" opacity="1.000000" stroke="none" 
	d="
M200.454315,174.615753 
	C195.514709,173.643448 197.735352,178.714355 194.918365,180.445221 
	C192.055420,176.421036 191.629471,171.893219 191.752670,167.462967 
	C191.806747,165.518112 194.295990,164.371078 195.975067,165.690628 
	C199.154846,168.189468 202.762299,170.404892 204.679657,174.117569 
	C203.439545,176.336609 202.095108,175.499435 200.454315,174.615753 
z"/>
<path fill="#000000" opacity="1.000000" stroke="none" 
	d="
M280.115387,165.864899 
	C282.134613,163.241425 283.962555,160.890244 285.833618,158.573914 
	C286.847595,157.318634 288.010223,156.673370 289.723114,157.459061 
	C291.204315,158.138489 291.618195,159.281464 291.462097,160.671234 
	C291.050781,164.332886 291.980072,168.150574 290.713135,171.542648 
	C289.258789,171.887268 288.422974,171.467346 288.200928,170.664536 
	C287.246368,167.213150 285.958527,165.729553 282.354156,168.385300 
	C280.317932,169.885605 279.369202,168.422531 280.115387,165.864899 
z"/>
<path fill="#000000" opacity="1.000000" stroke="none" 
	d="
M273.512634,154.774963 
	C271.681824,155.280975 270.058716,155.536880 268.122070,155.842224 
	C268.327423,157.802002 271.314819,157.105804 271.245667,159.394684 
	C270.733154,161.662155 267.816101,159.357132 266.804749,161.344177 
	C267.359802,163.917236 271.361816,162.171860 271.896637,165.375519 
	C268.605072,166.895081 265.572968,165.786331 262.860321,164.160950 
	C261.676575,163.451691 263.453186,152.681000 264.789154,152.356674 
	C268.011444,151.574432 271.570099,150.472000 273.512634,154.774963 
z"/>
<path fill="#000000" opacity="1.000000" stroke="none" 
	d="
M183.200867,180.401337 
	C181.321564,183.492508 181.981873,186.470184 183.344910,189.461670 
	C180.361298,189.469971 173.764053,183.516022 173.536865,180.988037 
	C173.328140,178.665375 177.885498,175.291962 181.329636,175.239563 
	C182.651398,178.006531 178.780533,178.393585 178.831360,180.624023 
	C180.330460,181.214554 181.494370,179.012741 183.200867,180.401337 
z"/>
<path fill="#000000" opacity="1.000000" stroke="none" 
	d="
M232.799484,151.726135 
	C234.731339,151.849976 236.507355,150.922150 237.995590,152.913254 
	C235.155899,155.389679 234.800919,158.634659 235.580734,162.139511 
	C235.872925,163.452744 236.311676,165.002777 234.421219,165.317245 
	C232.624130,165.616180 232.270111,163.928375 232.065094,162.700684 
	C231.507935,159.364304 232.142700,155.429123 226.954819,154.880264 
	C228.140808,152.028671 230.589020,152.447266 232.799484,151.726135 
z"/>
<path fill="#000000" opacity="1.000000" stroke="none" 
	d="
M324.555786,180.651199 
	C326.272064,179.984787 327.681244,179.423569 329.158447,181.671661 
	C325.586060,184.714676 320.394073,185.017334 317.026123,188.718811 
	C316.929688,183.622406 320.064758,179.749786 320.040619,174.757690 
	C323.167847,175.536987 323.383972,176.908951 322.817078,178.720276 
	C322.415771,180.002548 322.276428,181.129944 324.555786,180.651199 
z"/>
<path fill="#000000" opacity="1.000000" stroke="none" 
	d="
M249.976501,163.060852 
	C248.691589,164.103928 246.894882,164.441406 247.258453,162.876572 
	C248.251938,158.600555 249.415482,154.213104 252.940292,151.099167 
	C253.169418,150.896759 253.839539,151.193527 254.647461,151.305695 
	C254.272491,155.651566 251.819351,159.052322 249.976501,163.060852 
z"/>
<path fill="#000000" opacity="1.000000" stroke="none" 
	d="
M284.663086,242.860107 
	C283.639374,243.003647 282.762115,242.771866 282.847656,242.083420 
	C283.177277,239.430191 285.695435,238.415741 287.483063,238.545273 
	C289.092194,238.661850 292.190033,236.032272 292.585510,240.141602 
	C296.178772,238.668869 296.888428,234.815262 299.609863,232.582031 
	C300.340179,236.959152 297.744629,239.689224 294.661987,242.063293 
	C291.651550,244.381790 288.467133,246.139114 284.663086,242.860107 
z"/>
<path fill="#000000" opacity="1.000000" stroke="none" 
	d="
M276.006958,240.521973 
	C275.562653,238.157104 275.562653,238.157104 278.989441,236.470337 
	C276.442993,235.954346 274.266632,238.901459 271.130493,237.220367 
	C273.880737,234.402542 277.383942,234.105499 280.516357,233.067001 
	C281.331451,232.796783 282.055206,233.277634 282.540955,234.097183 
	C284.387573,237.212845 281.217621,238.868622 280.293945,241.051743 
	C279.534576,242.846451 277.526733,242.326385 276.006958,240.521973 
z"/>
<path fill="#000000" opacity="1.000000" stroke="none" 
	d="
M246.884399,239.481781 
	C245.622513,238.464081 244.196335,238.051010 243.952148,236.182892 
	C247.383713,235.480606 251.197205,236.215607 254.069000,233.394089 
	C256.853271,236.532120 256.048096,238.388168 252.577637,239.171204 
	C250.851334,239.560715 249.062607,240.268250 246.884399,239.481781 
z"/>
<path fill="#000000" opacity="1.000000" stroke="none" 
	d="
M213.049667,239.929077 
	C211.280396,238.983398 211.179916,238.881866 212.010269,238.060120 
	C214.980011,235.121307 218.368011,233.006042 222.984833,232.813644 
	C223.096970,237.130142 221.479919,239.500793 217.246597,238.488327 
	C215.344025,238.033295 214.536575,239.118347 213.049667,239.929077 
z"/>
<path fill="#000000" opacity="1.000000" stroke="none" 
	d="
M280.288696,231.557419 
	C276.567261,231.714264 273.457458,233.832657 268.506653,232.842484 
	C275.252533,229.502838 280.926819,227.947617 287.932129,227.879074 
	C285.686310,231.131836 282.630829,230.040451 280.288696,231.557419 
z"/>
<path fill="#000000" opacity="1.000000" stroke="none" 
	d="
M266.752319,218.408386 
	C268.518005,211.332840 270.111176,210.504303 275.363708,214.032394 
	C273.037811,216.528351 270.087158,217.635681 266.752319,218.408386 
z"/>
<path fill="#000000" opacity="1.000000" stroke="none" 
	d="
M268.326355,261.590820 
	C261.712494,260.567139 254.967651,261.475769 249.265869,259.628296 
	C243.842819,257.871124 239.164566,258.002472 233.208359,259.933350 
	C236.595734,255.890366 247.837753,252.908981 251.123627,255.158737 
	C253.950333,257.094116 256.722748,256.837982 259.631134,256.938812 
	C265.088074,257.128021 270.413971,257.780396 275.796509,260.279724 
	C273.428986,263.527191 270.900269,261.355957 268.326355,261.590820 
z"/>
<path fill="#000000" opacity="1.000000" stroke="none" 
	d="
M270.729980,256.453247 
	C265.574219,255.097290 260.305634,255.977127 255.204102,253.729141 
	C258.912262,251.014481 270.027618,251.313354 272.471405,253.872192 
	C274.290405,255.776840 273.017517,256.374359 270.729980,256.453247 
z"/>
</svg>